<?xml version="1.0" encoding="UTF-8" standalone="no"?>
<svg
   xmlns:dc="http://purl.org/dc/elements/1.1/"
   xmlns:cc="http://creativecommons.org/ns#"
   xmlns:rdf="http://www.w3.org/1999/02/22-rdf-syntax-ns#"
   xmlns:svg="http://www.w3.org/2000/svg"
   xmlns="http://www.w3.org/2000/svg"
   xmlns:sodipodi="http://sodipodi.sourceforge.net/DTD/sodipodi-0.dtd"
   xmlns:inkscape="http://www.inkscape.org/namespaces/inkscape"
   width="1400"
   height="100"
   viewBox="0 0 1400 100"
   version="1.1"
   id="svg8"
   inkscape:version="1.0.2-2 (e86c870879, 2021-01-15)"
   sodipodi:docname="barLine_05_end.svg">
  <defs
     id="defs2" />
  <sodipodi:namedview
     id="base"
     pagecolor="#ffffff"
     bordercolor="#666666"
     borderopacity="1.0"
     inkscape:pageopacity="0.0"
     inkscape:pageshadow="2"
     inkscape:zoom="0.49497475"
     inkscape:cx="817.75813"
     inkscape:cy="-141.85491"
     inkscape:document-units="px"
     inkscape:current-layer="layer1"
     inkscape:document-rotation="0"
     showgrid="false"
     units="px"
     inkscape:window-width="1920"
     inkscape:window-height="1017"
     inkscape:window-x="-8"
     inkscape:window-y="-8"
     inkscape:window-maximized="1" />
  <metadata
     id="metadata5">
    <rdf:RDF>
      <cc:Work
         rdf:about="">
        <dc:format>image/svg+xml</dc:format>
        <dc:type
           rdf:resource="http://purl.org/dc/dcmitype/StillImage" />
        <dc:title />
      </cc:Work>
    </rdf:RDF>
  </metadata>
  <g
     inkscape:label="Layer 1"
     inkscape:groupmode="layer"
     id="layer1">
    <a
       id="a14"
       transform="matrix(3.7795276,0,0,2.2279317,-4.72441e-7,-0.22636252)" />
    <a
       id="a14-5"
       transform="matrix(-3.7795274,0,0,2.2279317,1400,-2.2204725e-4)" />
    <path
       id="rect1309"
       style="fill:#174c61;fill-opacity:1;stroke:none;stroke-width:2.5;stroke-linejoin:round"
       d="M -100,100 H 1500 V 60.000001 C 1500,60.000001 1433.9934,40 1400,40 1366.0065,40 1300,60.000001 1300,60.000001 1300,60.000001 1233.9934,40 1200,40 1166.0065,40 1100,60.000001 1100,60.000001 1100,60.000001 1033.9934,40 999.99998,40 966.00653,40 900,60.000001 900,60.000001 900,60.000001 833.99346,40 800.00001,40 766.00656,40 699.99998,60.000001 699.99998,60.000001 699.99998,60.000001 633.99345,40 600,40 566.00656,40 500.00002,60.000001 500.00002,60.000001 500.00002,60.000001 433.99344,40 399.99999,40 366.00653,40 300,60.000001 300,60.000001 300,60.000001 233.99347,40 200,40 166.00654,40 99.999999,60.000001 99.999999,60.000001 99.999999,60.000001 33.993464,40 -4.7244083e-7,40 -33.993465,40 -100,60.000001 -100,60.000001 Z"
       sodipodi:nodetypes="ccczczczczczczczczcc" />
  </g>
</svg>
